<svg xmlns="http://www.w3.org/2000/svg" viewBox="0 0 1000 625"><defs><linearGradient id="s" x1="0" y1="0" x2="0" y2="1"><stop stop-color="#75b6df"/><stop offset=".6" stop-color="#dae7ef"/><stop offset="1" stop-color="#b98d6a"/></linearGradient></defs><rect width="1000" height="625" fill="url(#s)"/><circle cx="790" cy="118" r="62" fill="#f0dda4" opacity=".8"/><path d="M0 250C150 215 250 245 390 225s280-60 410-38 145 20 200 10v150H0Z" fill="#2d68a0"/><path d="M0 330C180 300 320 340 500 308s360-75 500-50v367H0Z" fill="#b58c6d"/><path d="M0 360C290 330 450 355 1000 250" stroke="#e6f5ff" stroke-width="20" fill="none" opacity=".8"/><path d="M0 400C300 380 620 355 1000 290" stroke="#f5fbff" stroke-width="5" fill="none"/><g stroke="#eed9bb" stroke-width="5" fill="none"><path d="M110 425 920 285M150 500 960 360M190 575 1000 435"/><path d="M260 380 365 625M430 345 520 625M600 315 690 625M770 285 850 625"/></g><path d="M0 555C220 495 360 485 535 500s310 22 465-5v130H0Z" fill="#3f83b6" opacity=".85"/><path d="M0 575C220 520 350 520 520 535s325 25 480-7" stroke="#eef5ea" stroke-width="9" fill="none" opacity=".7"/></svg>