<svg xmlns="http://www.w3.org/2000/svg" viewBox="0 0 1000 625"><defs><linearGradient id="g" x1="0" y1="0" x2="1" y2="1"><stop stop-color="#78acd0"/><stop offset=".45" stop-color="#dfe8ed"/><stop offset="1" stop-color="#8e6c59"/></linearGradient></defs><rect width="1000" height="625" fill="url(#g)"/><path d="M0 180 180 120 360 180 530 95 700 155 850 105 1000 135V335H0Z" fill="#1e5c95"/><path d="M0 260 220 210 390 260 560 200 770 250 1000 210V625H0Z" fill="#8d7768"/><path d="M80 625C230 470 430 360 1000 225" stroke="#eff7fb" stroke-width="42" fill="none"/><path d="M365 625C450 455 590 340 970 250" stroke="#d6e6ef" stroke-width="20" fill="none"/><g stroke="#d8eaf3" stroke-width="5" fill="none"><path d="M255 485 820 305M300 555 895 370M360 625 960 440"/><path d="M420 385 520 625M580 340 675 625M735 300 830 625"/></g><g fill="#edf7ff"><rect x="455" y="260" width="82" height="48"/><rect x="550" y="235" width="68" height="44"/><rect x="635" y="212" width="72" height="42"/></g><g fill="#07519a"><circle cx="330" cy="430" r="14"/><circle cx="493" cy="370" r="12"/><circle cx="650" cy="315" r="14"/></g></svg>