<svg xmlns="http://www.w3.org/2000/svg" viewBox="0 0 1200 1000"><defs><linearGradient id="sky" x1="0" y1="0" x2="0" y2="1"><stop stop-color="#72b9e8"/><stop offset=".56" stop-color="#d8ecf8"/><stop offset="1" stop-color="#b9876d"/></linearGradient><linearGradient id="earth" x1="0" x2="1"><stop stop-color="#9f8a78"/><stop offset="1" stop-color="#756355"/></linearGradient><filter id="blur"><feGaussianBlur stdDeviation="16"/></filter></defs><rect width="1200" height="1000" fill="url(#sky)"/><circle cx="885" cy="158" r="105" fill="#bfe8ff" opacity=".68" filter="url(#blur)"/><path d="M0 470 120 395 248 430 380 335 520 420 675 310 840 400 1010 310 1200 386V1000H0Z" fill="#1d5c98" opacity=".92"/><path d="M0 555 240 470 420 520 610 430 810 520 1010 445 1200 500V1000H0Z" fill="#477da8"/><path d="M0 640 230 570 410 635 610 545 785 610 980 545 1200 620V1000H0Z" fill="url(#earth)"/><path d="M1200 560C975 610 780 720 645 1000H1200Z" fill="#c4d9e5"/><path d="M1180 580C960 645 780 760 680 1000" fill="none" stroke="#eff9ff" stroke-width="36" opacity=".95"/><g fill="none" stroke="#d8eaf3" stroke-width="6" opacity=".72"><path d="M760 660 1170 570M700 720 1110 650M650 785 1025 735M610 850 930 820"/><path d="M780 640 650 1000M900 610 790 1000M1025 580 930 1000"/></g><g fill="#0a4f8f"><circle cx="820" cy="610" r="12"/><circle cx="945" cy="566" r="15"/><circle cx="1020" cy="665" r="11"/><circle cx="820" cy="785" r="10"/><circle cx="690" cy="820" r="13"/></g><g fill="#edf7fc"><rect x="820" y="515" width="90" height="50" rx="4"/><rect x="930" y="480" width="80" height="58" rx="4"/></g><rect width="1200" height="1000" fill="#061f45" opacity=".14"/></svg>