<svg xmlns="http://www.w3.org/2000/svg" viewBox="0 0 1000 625"><defs><linearGradient id="g" x1="0" y1="0" x2="0" y2="1"><stop stop-color="#80b9dd"/><stop offset=".45" stop-color="#e3edf3"/><stop offset="1" stop-color="#807168"/></linearGradient></defs><rect width="1000" height="625" fill="url(#g)"/><path d="M0 245 150 180 290 225 430 150 585 215 730 145 865 205 1000 170V360H0Z" fill="#205f99"/><path d="M0 340 180 290 360 335 540 285 710 330 865 285 1000 315V625H0Z" fill="#7f7d7a"/><path d="M0 430 1000 340" stroke="#edf7fc" stroke-width="56"/><path d="M300 625 415 390" stroke="#edf7fc" stroke-width="48"/><path d="M710 625 700 365" stroke="#edf7fc" stroke-width="48"/><g stroke="#d5e6ef" stroke-width="5"><path d="M20 465 980 380M25 540 985 455M30 610 990 530"/><path d="M160 420 210 625M520 385 550 625M860 355 880 625"/></g><g fill="#eef8ff"><rect x="150" y="315" width="85" height="54"/><rect x="250" y="305" width="72" height="48"/><rect x="770" y="290" width="95" height="58"/></g><g fill="#07519a"><circle cx="120" cy="390" r="14"/><circle cx="370" cy="375" r="13"/><circle cx="625" cy="350" r="15"/><circle cx="900" cy="335" r="12"/></g></svg>