<svg xmlns="http://www.w3.org/2000/svg" viewBox="0 0 1000 625"><defs><linearGradient id="g" x1="0" y1="0" x2="1" y2="1"><stop stop-color="#69add9"/><stop offset=".5" stop-color="#dceaf2"/><stop offset="1" stop-color="#9b7261"/></linearGradient></defs><rect width="1000" height="625" fill="url(#g)"/><path d="M0 235 135 185 280 220 420 160 555 220 710 145 850 205 1000 165V625H0Z" fill="#1f609b"/><path d="M0 315 170 275 350 315 520 265 700 315 850 270 1000 300V625H0Z" fill="#4f82aa"/><path d="M0 405 1000 330V625H0Z" fill="#a07a66"/><path d="M100 625C260 490 480 395 1000 330" stroke="#f0e5d3" stroke-width="44" fill="none"/><g stroke="#d8eaf3" stroke-width="5" fill="none"><path d="M190 540 860 375M240 610 930 440M370 625 1000 505"/><path d="M390 440 500 625M560 395 665 625M735 360 835 625"/></g><g fill="#0758a2"><circle cx="290" cy="485" r="15"/><circle cx="455" cy="425" r="13"/><circle cx="625" cy="382" r="14"/><circle cx="785" cy="350" r="12"/></g><g fill="#d89aaf"><circle cx="340" cy="412" r="8"/><circle cx="350" cy="400" r="7"/><circle cx="363" cy="412" r="8"/><circle cx="349" cy="422" r="7"/><circle cx="690" cy="350" r="8"/><circle cx="700" cy="338" r="7"/><circle cx="713" cy="350" r="8"/><circle cx="700" cy="360" r="7"/></g></svg>