<svg xmlns="http://www.w3.org/2000/svg" viewBox="0 0 850 700"><defs><linearGradient id="g" x1="0" y1="0" x2="1" y2="1"><stop stop-color="#e6f2f9"/><stop offset="1" stop-color="#cadde9"/></linearGradient><filter id="s"><feDropShadow dx="0" dy="8" stdDeviation="10" flood-opacity=".12"/></filter></defs><rect width="850" height="700" fill="url(#g)"/><path d="M0 520C130 475 250 500 370 535s230 60 480 20V700H0Z" fill="#62afe0"/><path d="M0 545C130 500 250 525 370 560s230 60 480 20" fill="none" stroke="#edf9ff" stroke-width="8" opacity=".75"/><path d="M90 80C210 135 250 205 340 235s205 5 315 90 105 175 135 260" fill="none" stroke="#f8f4e9" stroke-width="42"/><path d="M90 80C210 135 250 205 340 235s205 5 315 90 105 175 135 260" fill="none" stroke="#1784f7" stroke-width="5" stroke-dasharray="12 12"/><g stroke="#b3aa94" stroke-width="3" fill="none"><path d="M180 95 250 500M310 155 350 520M470 205 430 560M610 275 545 575"/><path d="M70 180 700 380M50 290 760 455M40 400 800 520"/></g><g filter="url(#s)"><circle cx="350" cy="235" r="24" fill="#061f45"/><circle cx="350" cy="235" r="8" fill="#49c5ff"/><circle cx="650" cy="330" r="19" fill="#ffc85a"/><circle cx="650" cy="330" r="6" fill="#fff"/></g><g font-family="Arial, sans-serif" fill="#061f45"><text x="382" y="232" font-size="26" font-weight="700">Huacho</text><text x="680" y="326" font-size="24" font-weight="700">Huaura</text><text x="75" y="630" font-size="18" opacity=".55">Océano Pacífico</text><text x="90" y="65" font-size="16" opacity=".55">Panamericana Norte</text></g><g fill="#236da5"><circle cx="110" cy="360" r="10"/><circle cx="180" cy="430" r="12"/><circle cx="510" cy="420" r="10"/><circle cx="720" cy="480" r="12"/></g></svg>