<svg xmlns="http://www.w3.org/2000/svg" viewBox="0 0 1000 625"><defs><linearGradient id="g" x1="0" y1="0" x2="0" y2="1"><stop stop-color="#79b7de"/><stop offset=".55" stop-color="#dceaf2"/><stop offset="1" stop-color="#9a7a67"/></linearGradient></defs><rect width="1000" height="625" fill="url(#g)"/><path d="M0 265 125 195 250 235 390 165 515 230 670 155 835 220 1000 175V625H0Z" fill="#1d5e99"/><path d="M0 335 180 280 340 325 500 270 670 325 830 270 1000 310V625H0Z" fill="#4d83ad"/><rect y="405" width="1000" height="220" fill="#947561"/><path d="M0 510C210 430 430 395 1000 390" stroke="#eef8fd" stroke-width="40" fill="none"/><g stroke="#d8eaf3" stroke-width="5" fill="none"><path d="M95 505 925 400M135 570 965 465M190 625 1000 530"/><path d="M265 465 340 625M430 435 505 625M600 415 670 625M770 400 835 625"/></g><rect x="485" y="300" width="140" height="90" rx="8" fill="#edf8ff"/><rect x="515" y="325" width="80" height="65" fill="#54a6d8"/><path d="M465 300 555 250 645 300" fill="#d9784d"/><g fill="#0755a0"><circle cx="420" cy="355" r="18"/><circle cx="680" cy="360" r="16"/><circle cx="780" cy="390" r="13"/><circle cx="250" cy="430" r="15"/></g></svg>