<svg xmlns="http://www.w3.org/2000/svg" viewBox="0 0 1000 625"><defs><linearGradient id="g" x1="0" y1="0" x2="0" y2="1"><stop stop-color="#86bee4"/><stop offset=".5" stop-color="#e2edf4"/><stop offset="1" stop-color="#9e7a62"/></linearGradient><linearGradient id="p" x1="0" x2="1"><stop stop-color="#a37e65"/><stop offset="1" stop-color="#c8a98e"/></linearGradient></defs><rect width="1000" height="625" fill="url(#g)"/><path d="M0 275 120 220 250 255 400 185 535 250 690 175 830 240 1000 190V625H0Z" fill="#1b5b99"/><path d="M0 355 180 290 350 335 520 275 680 340 840 270 1000 310V625H0Z" fill="#5e86a8"/><path d="M0 405 1000 310V625H0Z" fill="url(#p)"/><path d="M160 625C275 520 445 430 1000 320" stroke="#eff8fc" stroke-width="46" fill="none"/><g stroke="#d8eaf3" stroke-width="5" fill="none" opacity=".85"><path d="M250 555 908 375M320 625 965 445M450 625 1000 515"/><path d="M390 450 520 625M560 405 680 625M725 365 850 625"/></g><g fill="#0759a6"><circle cx="350" cy="485" r="13"/><circle cx="506" cy="430" r="12"/><circle cx="635" cy="390" r="15"/><circle cx="784" cy="350" r="11"/></g><g fill="#eef8ff"><rect x="610" y="275" width="92" height="52" rx="3"/><rect x="718" y="255" width="74" height="46" rx="3"/></g></svg>